<?xml version="1.0" encoding="utf-8" standalone="no"?>
<!DOCTYPE svg PUBLIC "-//W3C//DTD SVG 1.1//EN"
  "http://www.w3.org/Graphics/SVG/1.1/DTD/svg11.dtd">
<svg xmlns:xlink="http://www.w3.org/1999/xlink" width="126pt" height="125.28pt" viewBox="0 0 126 125.28" xmlns="http://www.w3.org/2000/svg" version="1.1">
 <metadata>
  <rdf:RDF xmlns:dc="http://purl.org/dc/elements/1.1/" xmlns:cc="http://creativecommons.org/ns#" xmlns:rdf="http://www.w3.org/1999/02/22-rdf-syntax-ns#">
   <cc:Work>
    <dc:type rdf:resource="http://purl.org/dc/dcmitype/StillImage"/>
    <dc:date>2024-09-05T15:37:57.197612</dc:date>
    <dc:format>image/svg+xml</dc:format>
    <dc:creator>
     <cc:Agent>
      <dc:title>Matplotlib v3.9.0, https://matplotlib.org/</dc:title>
     </cc:Agent>
    </dc:creator>
   </cc:Work>
  </rdf:RDF>
 </metadata>
 <defs>
  <style type="text/css">*{stroke-linejoin: round; stroke-linecap: butt}</style>
 </defs>
 <g id="figure_1">
  <g id="patch_1">
   <path d="M 0 125.28 
L 126 125.28 
L 126 0 
L 0 0 
z
" style="fill: #ffffff"/>
  </g>
  <g id="axes_1">
   <g id="PathCollection_1">
    <defs>
     <path id="m88627f1444" d="M 0 2.738613 
C 0.726289 2.738613 1.422928 2.450055 1.936492 1.936492 
C 2.450055 1.422928 2.738613 0.726289 2.738613 0 
C 2.738613 -0.726289 2.450055 -1.422928 1.936492 -1.936492 
C 1.422928 -2.450055 0.726289 -2.738613 0 -2.738613 
C -0.726289 -2.738613 -1.422928 -2.450055 -1.936492 -1.936492 
C -2.450055 -1.422928 -2.738613 -0.726289 -2.738613 0 
C -2.738613 0.726289 -2.450055 1.422928 -1.936492 1.936492 
C -1.422928 2.450055 -0.726289 2.738613 0 2.738613 
z
" style="stroke: #999c81; stroke-opacity: 0.9"/>
    </defs>
    <g clip-path="url(#pcfd5f52155)">
     <use xlink:href="#m88627f1444" x="89.521364" y="62.970121" style="fill: #999c81; fill-opacity: 0.9; stroke: #999c81; stroke-opacity: 0.9"/>
     <use xlink:href="#m88627f1444" x="49.678059" y="31.666049" style="fill: #999c81; fill-opacity: 0.9; stroke: #999c81; stroke-opacity: 0.9"/>
     <use xlink:href="#m88627f1444" x="91.104319" y="89.442365" style="fill: #999c81; fill-opacity: 0.9; stroke: #999c81; stroke-opacity: 0.9"/>
     <use xlink:href="#m88627f1444" x="60.415988" y="26.75413" style="fill: #999c81; fill-opacity: 0.9; stroke: #999c81; stroke-opacity: 0.9"/>
     <use xlink:href="#m88627f1444" x="66.658828" y="26.305044" style="fill: #999c81; fill-opacity: 0.9; stroke: #999c81; stroke-opacity: 0.9"/>
     <use xlink:href="#m88627f1444" x="52.466387" y="43.24123" style="fill: #999c81; fill-opacity: 0.9; stroke: #999c81; stroke-opacity: 0.9"/>
     <use xlink:href="#m88627f1444" x="100.06554" y="87.703188" style="fill: #999c81; fill-opacity: 0.9; stroke: #999c81; stroke-opacity: 0.9"/>
     <use xlink:href="#m88627f1444" x="62.304146" y="52.820074" style="fill: #999c81; fill-opacity: 0.9; stroke: #999c81; stroke-opacity: 0.9"/>
     <use xlink:href="#m88627f1444" x="95.829879" y="20.335922" style="fill: #999c81; fill-opacity: 0.9; stroke: #999c81; stroke-opacity: 0.9"/>
     <use xlink:href="#m88627f1444" x="81.230771" y="22.642999" style="fill: #999c81; fill-opacity: 0.9; stroke: #999c81; stroke-opacity: 0.9"/>
     <use xlink:href="#m88627f1444" x="49.99773" y="32.181553" style="fill: #999c81; fill-opacity: 0.9; stroke: #999c81; stroke-opacity: 0.9"/>
     <use xlink:href="#m88627f1444" x="65.915981" y="96.938735" style="fill: #999c81; fill-opacity: 0.9; stroke: #999c81; stroke-opacity: 0.9"/>
     <use xlink:href="#m88627f1444" x="85.124413" y="21.071316" style="fill: #999c81; fill-opacity: 0.9; stroke: #999c81; stroke-opacity: 0.9"/>
     <use xlink:href="#m88627f1444" x="76.244993" y="95.352225" style="fill: #999c81; fill-opacity: 0.9; stroke: #999c81; stroke-opacity: 0.9"/>
     <use xlink:href="#m88627f1444" x="80.01963" y="93.346791" style="fill: #999c81; fill-opacity: 0.9; stroke: #999c81; stroke-opacity: 0.9"/>
     <use xlink:href="#m88627f1444" x="103.060431" y="72.652503" style="fill: #999c81; fill-opacity: 0.9; stroke: #999c81; stroke-opacity: 0.9"/>
     <use xlink:href="#m88627f1444" x="56.396445" y="29.173329" style="fill: #999c81; fill-opacity: 0.9; stroke: #999c81; stroke-opacity: 0.9"/>
    </g>
   </g>
   <g id="PathCollection_2">
    <defs>
     <path id="mb6a539dbf5" d="M -2.738613 2.738613 
L 2.738613 2.738613 
L 2.738613 -2.738613 
L -2.738613 -2.738613 
z
" style="stroke: #999c81; stroke-opacity: 0.9"/>
    </defs>
    <g clip-path="url(#pcfd5f52155)">
     <use xlink:href="#mb6a539dbf5" x="29.472929" y="49.884357" style="fill: #999c81; fill-opacity: 0.9; stroke: #999c81; stroke-opacity: 0.9"/>
     <use xlink:href="#mb6a539dbf5" x="32.358744" y="50.246232" style="fill: #999c81; fill-opacity: 0.9; stroke: #999c81; stroke-opacity: 0.9"/>
     <use xlink:href="#mb6a539dbf5" x="62.551453" y="91.028788" style="fill: #999c81; fill-opacity: 0.9; stroke: #999c81; stroke-opacity: 0.9"/>
     <use xlink:href="#mb6a539dbf5" x="78.114572" y="79.542482" style="fill: #999c81; fill-opacity: 0.9; stroke: #999c81; stroke-opacity: 0.9"/>
     <use xlink:href="#mb6a539dbf5" x="23.386153" y="36.493291" style="fill: #999c81; fill-opacity: 0.9; stroke: #999c81; stroke-opacity: 0.9"/>
     <use xlink:href="#mb6a539dbf5" x="26.533903" y="99.144793" style="fill: #999c81; fill-opacity: 0.9; stroke: #999c81; stroke-opacity: 0.9"/>
     <use xlink:href="#mb6a539dbf5" x="42.414121" y="96.955785" style="fill: #999c81; fill-opacity: 0.9; stroke: #999c81; stroke-opacity: 0.9"/>
     <use xlink:href="#mb6a539dbf5" x="75.304442" y="70.386217" style="fill: #999c81; fill-opacity: 0.9; stroke: #999c81; stroke-opacity: 0.9"/>
     <use xlink:href="#mb6a539dbf5" x="18.042668" y="44.364594" style="fill: #999c81; fill-opacity: 0.9; stroke: #999c81; stroke-opacity: 0.9"/>
     <use xlink:href="#mb6a539dbf5" x="77.878516" y="79.612903" style="fill: #999c81; fill-opacity: 0.9; stroke: #999c81; stroke-opacity: 0.9"/>
     <use xlink:href="#mb6a539dbf5" x="38.992263" y="56.789351" style="fill: #999c81; fill-opacity: 0.9; stroke: #999c81; stroke-opacity: 0.9"/>
     <use xlink:href="#mb6a539dbf5" x="24.325017" y="47.349342" style="fill: #999c81; fill-opacity: 0.9; stroke: #999c81; stroke-opacity: 0.9"/>
     <use xlink:href="#mb6a539dbf5" x="68.282517" y="87.042609" style="fill: #999c81; fill-opacity: 0.9; stroke: #999c81; stroke-opacity: 0.9"/>
     <use xlink:href="#mb6a539dbf5" x="64.704658" y="89.512943" style="fill: #999c81; fill-opacity: 0.9; stroke: #999c81; stroke-opacity: 0.9"/>
     <use xlink:href="#mb6a539dbf5" x="65.068623" y="90.606917" style="fill: #999c81; fill-opacity: 0.9; stroke: #999c81; stroke-opacity: 0.9"/>
     <use xlink:href="#mb6a539dbf5" x="24.437314" y="48.9572" style="fill: #999c81; fill-opacity: 0.9; stroke: #999c81; stroke-opacity: 0.9"/>
     <use xlink:href="#mb6a539dbf5" x="46.534952" y="57.910771" style="fill: #999c81; fill-opacity: 0.9; stroke: #999c81; stroke-opacity: 0.9"/>
     <use xlink:href="#mb6a539dbf5" x="27.294756" y="100.070947" style="fill: #999c81; fill-opacity: 0.9; stroke: #999c81; stroke-opacity: 0.9"/>
     <use xlink:href="#mb6a539dbf5" x="52.407545" y="22.196956" style="fill: #999c81; fill-opacity: 0.9; stroke: #999c81; stroke-opacity: 0.9"/>
     <use xlink:href="#mb6a539dbf5" x="46.164734" y="95.300154" style="fill: #999c81; fill-opacity: 0.9; stroke: #999c81; stroke-opacity: 0.9"/>
    </g>
   </g>
   <g id="PathCollection_3">
    <defs>
     <path id="m66cf2ca669" d="M 0 2.738613 
C 0.726289 2.738613 1.422928 2.450055 1.936492 1.936492 
C 2.450055 1.422928 2.738613 0.726289 2.738613 0 
C 2.738613 -0.726289 2.450055 -1.422928 1.936492 -1.936492 
C 1.422928 -2.450055 0.726289 -2.738613 0 -2.738613 
C -0.726289 -2.738613 -1.422928 -2.450055 -1.936492 -1.936492 
C -2.450055 -1.422928 -2.738613 -0.726289 -2.738613 0 
C -2.738613 0.726289 -2.450055 1.422928 -1.936492 1.936492 
C -1.422928 2.450055 -0.726289 2.738613 0 2.738613 
z
" style="stroke: #2364aa; stroke-opacity: 0.9"/>
    </defs>
    <g clip-path="url(#pcfd5f52155)">
     <use xlink:href="#m66cf2ca669" x="81.894099" y="42.069174" style="fill: #2364aa; fill-opacity: 0.9; stroke: #2364aa; stroke-opacity: 0.9"/>
     <use xlink:href="#m66cf2ca669" x="30.435816" y="52.783602" style="fill: #2364aa; fill-opacity: 0.9; stroke: #2364aa; stroke-opacity: 0.9"/>
     <use xlink:href="#m66cf2ca669" x="106.535656" y="56.472464" style="fill: #2364aa; fill-opacity: 0.9; stroke: #2364aa; stroke-opacity: 0.9"/>
     <use xlink:href="#m66cf2ca669" x="32.347819" y="42.049975" style="fill: #2364aa; fill-opacity: 0.9; stroke: #2364aa; stroke-opacity: 0.9"/>
     <use xlink:href="#m66cf2ca669" x="35.615024" y="37.22421" style="fill: #2364aa; fill-opacity: 0.9; stroke: #2364aa; stroke-opacity: 0.9"/>
     <use xlink:href="#m66cf2ca669" x="42.442613" y="57.549822" style="fill: #2364aa; fill-opacity: 0.9; stroke: #2364aa; stroke-opacity: 0.9"/>
     <use xlink:href="#m66cf2ca669" x="110.245153" y="48.902013" style="fill: #2364aa; fill-opacity: 0.9; stroke: #2364aa; stroke-opacity: 0.9"/>
     <use xlink:href="#m66cf2ca669" x="56.804848" y="55.991429" style="fill: #2364aa; fill-opacity: 0.9; stroke: #2364aa; stroke-opacity: 0.9"/>
     <use xlink:href="#m66cf2ca669" x="47.41481" y="12.399631" style="fill: #2364aa; fill-opacity: 0.9; stroke: #2364aa; stroke-opacity: 0.9"/>
     <use xlink:href="#m66cf2ca669" x="40.900112" y="24.42363" style="fill: #2364aa; fill-opacity: 0.9; stroke: #2364aa; stroke-opacity: 0.9"/>
     <use xlink:href="#m66cf2ca669" x="31.085449" y="52.853017" style="fill: #2364aa; fill-opacity: 0.9; stroke: #2364aa; stroke-opacity: 0.9"/>
     <use xlink:href="#m66cf2ca669" x="98.444801" y="79.284469" style="fill: #2364aa; fill-opacity: 0.9; stroke: #2364aa; stroke-opacity: 0.9"/>
     <use xlink:href="#m66cf2ca669" x="41.780986" y="20.654637" style="fill: #2364aa; fill-opacity: 0.9; stroke: #2364aa; stroke-opacity: 0.9"/>
     <use xlink:href="#m66cf2ca669" x="103.095009" y="70.804274" style="fill: #2364aa; fill-opacity: 0.9; stroke: #2364aa; stroke-opacity: 0.9"/>
     <use xlink:href="#m66cf2ca669" x="103.517423" y="66.867288" style="fill: #2364aa; fill-opacity: 0.9; stroke: #2364aa; stroke-opacity: 0.9"/>
     <use xlink:href="#m66cf2ca669" x="98.524646" y="37.867" style="fill: #2364aa; fill-opacity: 0.9; stroke: #2364aa; stroke-opacity: 0.9"/>
     <use xlink:href="#m66cf2ca669" x="32.152061" y="46.409126" style="fill: #2364aa; fill-opacity: 0.9; stroke: #2364aa; stroke-opacity: 0.9"/>
    </g>
   </g>
   <g id="PathCollection_4">
    <defs>
     <path id="m4757a8c855" d="M -2.738613 2.738613 
L 2.738613 2.738613 
L 2.738613 -2.738613 
L -2.738613 -2.738613 
z
" style="stroke: #c84630; stroke-opacity: 0.9"/>
    </defs>
    <g clip-path="url(#pcfd5f52155)">
     <use xlink:href="#m4757a8c855" x="34.877629" y="78.256449" style="fill: #c84630; fill-opacity: 0.9; stroke: #c84630; stroke-opacity: 0.9"/>
     <use xlink:href="#m4757a8c855" x="36.897999" y="76.360418" style="fill: #c84630; fill-opacity: 0.9; stroke: #c84630; stroke-opacity: 0.9"/>
     <use xlink:href="#m4757a8c855" x="91.173657" y="78.269234" style="fill: #c84630; fill-opacity: 0.9; stroke: #c84630; stroke-opacity: 0.9"/>
     <use xlink:href="#m4757a8c855" x="90.033175" y="60.145391" style="fill: #c84630; fill-opacity: 0.9; stroke: #c84630; stroke-opacity: 0.9"/>
     <use xlink:href="#m4757a8c855" x="19.305569" y="74.833138" style="fill: #c84630; fill-opacity: 0.9; stroke: #c84630; stroke-opacity: 0.9"/>
     <use xlink:href="#m4757a8c855" x="77.272557" y="109.358628" style="fill: #c84630; fill-opacity: 0.9; stroke: #c84630; stroke-opacity: 0.9"/>
     <use xlink:href="#m4757a8c855" x="84.646026" y="96.467888" style="fill: #c84630; fill-opacity: 0.9; stroke: #c84630; stroke-opacity: 0.9"/>
     <use xlink:href="#m4757a8c855" x="80.180179" y="56.816907" style="fill: #c84630; fill-opacity: 0.9; stroke: #c84630; stroke-opacity: 0.9"/>
     <use xlink:href="#m4757a8c855" x="23.215053" y="83.364392" style="fill: #c84630; fill-opacity: 0.9; stroke: #c84630; stroke-opacity: 0.9"/>
     <use xlink:href="#m4757a8c855" x="89.957501" y="60.359276" style="fill: #c84630; fill-opacity: 0.9; stroke: #c84630; stroke-opacity: 0.9"/>
     <use xlink:href="#m4757a8c855" x="46.657739" y="75.359088" style="fill: #c84630; fill-opacity: 0.9; stroke: #c84630; stroke-opacity: 0.9"/>
     <use xlink:href="#m4757a8c855" x="29.581156" y="80.528113" style="fill: #c84630; fill-opacity: 0.9; stroke: #c84630; stroke-opacity: 0.9"/>
     <use xlink:href="#m4757a8c855" x="90.971882" y="71.738385" style="fill: #c84630; fill-opacity: 0.9; stroke: #c84630; stroke-opacity: 0.9"/>
     <use xlink:href="#m4757a8c855" x="91.08154" y="75.804842" style="fill: #c84630; fill-opacity: 0.9; stroke: #c84630; stroke-opacity: 0.9"/>
     <use xlink:href="#m4757a8c855" x="92.275344" y="76.181905" style="fill: #c84630; fill-opacity: 0.9; stroke: #c84630; stroke-opacity: 0.9"/>
     <use xlink:href="#m4757a8c855" x="31.087317" y="81.39113" style="fill: #c84630; fill-opacity: 0.9; stroke: #c84630; stroke-opacity: 0.9"/>
     <use xlink:href="#m4757a8c855" x="52.095673" y="70.50661" style="fill: #c84630; fill-opacity: 0.9; stroke: #c84630; stroke-opacity: 0.9"/>
     <use xlink:href="#m4757a8c855" x="78.549328" y="109.347033" style="fill: #c84630; fill-opacity: 0.9; stroke: #c84630; stroke-opacity: 0.9"/>
     <use xlink:href="#m4757a8c855" x="23.558726" y="45.223305" style="fill: #c84630; fill-opacity: 0.9; stroke: #c84630; stroke-opacity: 0.9"/>
     <use xlink:href="#m4757a8c855" x="85.367636" y="92.754066" style="fill: #c84630; fill-opacity: 0.9; stroke: #c84630; stroke-opacity: 0.9"/>
    </g>
   </g>
   <g id="line2d_1">
    <path d="M 38.0016 99.6 
L 42.984951 98.785455 
L 47.694118 97.970909 
L 52.134755 97.156364 
L 56.312515 96.341818 
L 60.233051 95.527273 
L 63.902017 94.712727 
L 67.325065 93.898182 
L 70.507849 93.083636 
L 73.456023 92.269091 
L 76.175239 91.454545 
L 78.671151 90.64 
L 80.949411 89.825455 
L 83.015675 89.010909 
L 84.875593 88.196364 
L 86.534821 87.381818 
L 87.999011 86.567273 
L 89.273816 85.752727 
L 90.36489 84.938182 
L 91.277886 84.123636 
L 92.018457 83.309091 
L 92.592257 82.494545 
L 93.004938 81.68 
L 93.262155 80.865455 
L 93.36956 80.050909 
L 93.332806 79.236364 
L 93.157547 78.421818 
L 92.849437 77.607273 
L 92.414127 76.792727 
L 91.857273 75.978182 
L 91.184526 75.163636 
L 90.401541 74.349091 
L 89.51397 73.534545 
L 88.527467 72.72 
L 87.447685 71.905455 
L 86.280277 71.090909 
L 85.030896 70.276364 
L 83.705197 69.461818 
L 82.308832 68.647273 
L 80.847454 67.832727 
L 79.326717 67.018182 
L 77.752273 66.203636 
L 76.129777 65.389091 
L 74.464881 64.574545 
L 72.76324 63.76 
L 71.030505 62.945455 
L 69.27233 62.130909 
L 67.494369 61.316364 
L 65.702275 60.501818 
L 63.9017 59.687273 
L 62.0983 58.872727 
L 60.297725 58.058182 
L 58.505631 57.243636 
L 56.72767 56.429091 
L 54.969495 55.614545 
L 53.23676 54.8 
L 51.535119 53.985455 
L 49.870223 53.170909 
L 48.247727 52.356364 
L 46.673283 51.541818 
L 45.152546 50.727273 
L 43.691168 49.912727 
L 42.294803 49.098182 
L 40.969104 48.283636 
L 39.719723 47.469091 
L 38.552315 46.654545 
L 37.472533 45.84 
L 36.48603 45.025455 
L 35.598459 44.210909 
L 34.815474 43.396364 
L 34.142727 42.581818 
L 33.585873 41.767273 
L 33.150563 40.952727 
L 32.842453 40.138182 
L 32.667194 39.323636 
L 32.63044 38.509091 
L 32.737845 37.694545 
L 32.995062 36.88 
L 33.407743 36.065455 
L 33.981543 35.250909 
L 34.722114 34.436364 
L 35.63511 33.621818 
L 36.726184 32.807273 
L 38.000989 31.992727 
L 39.465179 31.178182 
L 41.124407 30.363636 
L 42.984325 29.549091 
L 45.050589 28.734545 
L 47.328849 27.92 
L 49.824761 27.105455 
L 52.543977 26.290909 
L 55.492151 25.476364 
L 58.674935 24.661818 
L 62.097983 23.847273 
L 65.766949 23.032727 
L 69.687485 22.218182 
L 73.865245 21.403636 
L 78.305882 20.589091 
L 83.015049 19.774545 
L 87.9984 18.96 
" clip-path="url(#pcfd5f52155)" style="fill: none; stroke: #000000; stroke-width: 9; stroke-linecap: round"/>
   </g>
   <g id="line2d_2">
    <path d="M 53.019627 104.603955 
L 57.480399 102.438363 
L 61.680406 100.349298 
L 65.625026 98.335184 
L 69.319634 96.394442 
L 72.769608 94.525494 
L 75.980325 92.726762 
L 78.95716 90.996669 
L 81.705491 89.333637 
L 84.230693 87.736087 
L 86.538144 86.202442 
L 88.63322 84.731124 
L 90.521298 83.320555 
L 92.207754 81.969157 
L 93.697964 80.675353 
L 94.997306 79.437563 
L 96.111157 78.254211 
L 97.044891 77.123719 
L 97.803887 76.044508 
L 98.393521 75.015001 
L 98.819169 74.03362 
L 99.086207 73.098787 
L 99.200014 72.208924 
L 99.165964 71.362453 
L 98.989435 70.557796 
L 98.675803 69.793376 
L 98.230445 69.067614 
L 97.658737 68.378933 
L 96.966056 67.725754 
L 96.157779 67.1065 
L 95.239282 66.519593 
L 94.215941 65.963455 
L 93.093134 65.436508 
L 91.876236 64.937174 
L 90.570625 64.463876 
L 89.181677 64.015035 
L 87.714769 63.589073 
L 86.175277 63.184413 
L 84.568577 62.799477 
L 82.900047 62.432686 
L 81.175063 62.082464 
L 79.399001 61.747231 
L 77.577239 61.425411 
L 75.715152 61.115425 
L 73.818117 60.815695 
L 71.891511 60.524643 
L 69.94071 60.240692 
L 67.971092 59.962264 
L 65.988032 59.687781 
L 63.996907 59.415664 
L 62.003093 59.144336 
L 60.011968 58.872219 
L 58.028908 58.597736 
L 56.05929 58.319308 
L 54.108489 58.035357 
L 52.181883 57.744305 
L 50.284848 57.444575 
L 48.422761 57.134589 
L 46.600999 56.812769 
L 44.824937 56.477536 
L 43.099953 56.127314 
L 41.431423 55.760523 
L 39.824723 55.375587 
L 38.285231 54.970927 
L 36.818323 54.544965 
L 35.429375 54.096124 
L 34.123764 53.622826 
L 32.906866 53.123492 
L 31.784059 52.596545 
L 30.760718 52.040407 
L 29.842221 51.4535 
L 29.033944 50.834246 
L 28.341263 50.181067 
L 27.769555 49.492386 
L 27.324197 48.766624 
L 27.010565 48.002204 
L 26.834036 47.197547 
L 26.799986 46.351076 
L 26.913793 45.461213 
L 27.180831 44.52638 
L 27.606479 43.544999 
L 28.196113 42.515492 
L 28.955109 41.436281 
L 29.888843 40.305789 
L 31.002694 39.122437 
L 32.302036 37.884647 
L 33.792246 36.590843 
L 35.478702 35.239445 
L 37.36678 33.828876 
L 39.461856 32.357558 
L 41.769307 30.823913 
L 44.294509 29.226363 
L 47.04284 27.563331 
L 50.019675 25.833238 
L 53.230392 24.034506 
L 56.680366 22.165558 
L 60.374974 20.224816 
L 64.319594 18.210702 
L 68.519601 16.121637 
L 72.980373 13.956045 
" clip-path="url(#pcfd5f52155)" style="fill: none; stroke: #000000; stroke-opacity: 0.742857; stroke-width: 6.5; stroke-linecap: round"/>
   </g>
   <g id="line2d_3">
    <path d="M 69.014603 105.171286 
L 72.516143 101.86663 
L 75.795864 98.707539 
L 78.85834 95.691011 
L 81.708143 92.814045 
L 84.349848 90.07364 
L 86.788028 87.466795 
L 89.027257 84.990508 
L 91.072108 82.641778 
L 92.927155 80.417603 
L 94.596972 78.314983 
L 96.086131 76.330915 
L 97.399207 74.462399 
L 98.540774 72.706433 
L 99.515405 71.060016 
L 100.327673 69.520146 
L 100.982152 68.083822 
L 101.483415 66.748043 
L 101.836037 65.509808 
L 102.044591 64.366115 
L 102.11365 63.313962 
L 102.047788 62.35035 
L 101.851579 61.472275 
L 101.529596 60.676737 
L 101.086413 59.960734 
L 100.526603 59.321265 
L 99.854741 58.75533 
L 99.075399 58.259925 
L 98.193151 57.832051 
L 97.21257 57.468706 
L 96.138231 57.166888 
L 94.974708 56.923596 
L 93.726572 56.735828 
L 92.398399 56.600585 
L 90.994761 56.514863 
L 89.520233 56.475662 
L 87.979388 56.47998 
L 86.376799 56.524817 
L 84.71704 56.60717 
L 83.004685 56.724038 
L 81.244308 56.872421 
L 79.440481 57.049316 
L 77.597779 57.251723 
L 75.720774 57.476639 
L 73.814042 57.721065 
L 71.882154 57.981998 
L 69.929686 58.256436 
L 67.961209 58.54138 
L 65.981299 58.833827 
L 63.994529 59.130775 
L 62.005471 59.429225 
L 60.018701 59.726173 
L 58.038791 60.01862 
L 56.070314 60.303564 
L 54.117846 60.578002 
L 52.185958 60.838935 
L 50.279226 61.083361 
L 48.402221 61.308277 
L 46.559519 61.510684 
L 44.755692 61.687579 
L 42.995315 61.835962 
L 41.28296 61.95283 
L 39.623201 62.035183 
L 38.020612 62.08002 
L 36.479767 62.084338 
L 35.005239 62.045137 
L 33.601601 61.959415 
L 32.273428 61.824172 
L 31.025292 61.636404 
L 29.861769 61.393112 
L 28.78743 61.091294 
L 27.806849 60.727949 
L 26.924601 60.300075 
L 26.145259 59.80467 
L 25.473397 59.238735 
L 24.913587 58.599266 
L 24.470404 57.883263 
L 24.148421 57.087725 
L 23.952212 56.20965 
L 23.88635 55.246038 
L 23.955409 54.193885 
L 24.163963 53.050192 
L 24.516585 51.811957 
L 25.017848 50.476178 
L 25.672327 49.039854 
L 26.484595 47.499984 
L 27.459226 45.853567 
L 28.600793 44.097601 
L 29.913869 42.229085 
L 31.403028 40.245017 
L 33.072845 38.142397 
L 34.927892 35.918222 
L 36.972743 33.569492 
L 39.211972 31.093205 
L 41.650152 28.48636 
L 44.291857 25.745955 
L 47.14166 22.868989 
L 50.204136 19.852461 
L 53.483857 16.69337 
L 56.985397 13.388714 
" clip-path="url(#pcfd5f52155)" style="fill: none; stroke: #000000; stroke-opacity: 0.485714; stroke-width: 4; stroke-linecap: round"/>
   </g>
   <g id="line2d_4">
    <path d="M 84.420828 101.246458 
L 86.620382 97.126221 
L 88.658775 93.206337 
L 90.539329 89.482674 
L 92.265369 85.951103 
L 93.840216 82.607491 
L 95.267193 79.447708 
L 96.549625 76.467623 
L 97.690832 73.663105 
L 98.694139 71.030024 
L 99.562867 68.564247 
L 100.300341 66.261644 
L 100.909883 64.118084 
L 101.394816 62.129435 
L 101.758463 60.291568 
L 102.004146 58.600351 
L 102.135189 57.051654 
L 102.154914 55.641344 
L 102.066645 54.365291 
L 101.873705 53.219364 
L 101.579415 52.199432 
L 101.1871 51.301365 
L 100.700082 50.52103 
L 100.121683 49.854298 
L 99.455228 49.297037 
L 98.704039 48.845116 
L 97.871438 48.494404 
L 96.960749 48.24077 
L 95.975294 48.080084 
L 94.918397 48.008214 
L 93.79338 48.021029 
L 92.603567 48.114398 
L 91.35228 48.28419 
L 90.042841 48.526275 
L 88.678575 48.836521 
L 87.262804 49.210797 
L 85.79885 49.644973 
L 84.290037 50.134917 
L 82.739688 50.676498 
L 81.151126 51.265586 
L 79.527672 51.898049 
L 77.872652 52.569756 
L 76.189386 53.276577 
L 74.481199 54.01438 
L 72.751412 54.779034 
L 71.00335 55.566409 
L 69.240335 56.372374 
L 67.465689 57.192797 
L 65.682736 58.023547 
L 63.894799 58.860494 
L 62.105201 59.699506 
L 60.317264 60.536453 
L 58.534311 61.367203 
L 56.759665 62.187626 
L 54.99665 62.993591 
L 53.248588 63.780966 
L 51.518801 64.54562 
L 49.810614 65.283423 
L 48.127348 65.990244 
L 46.472328 66.661951 
L 44.848874 67.294414 
L 43.260312 67.883502 
L 41.709963 68.425083 
L 40.20115 68.915027 
L 38.737196 69.349203 
L 37.321425 69.723479 
L 35.957159 70.033725 
L 34.64772 70.27581 
L 33.396433 70.445602 
L 32.20662 70.538971 
L 31.081603 70.551786 
L 30.024706 70.479916 
L 29.039251 70.31923 
L 28.128562 70.065596 
L 27.295961 69.714884 
L 26.544772 69.262963 
L 25.878317 68.705702 
L 25.299918 68.03897 
L 24.8129 67.258635 
L 24.420585 66.360568 
L 24.126295 65.340636 
L 23.933355 64.194709 
L 23.845086 62.918656 
L 23.864811 61.508346 
L 23.995854 59.959649 
L 24.241537 58.268432 
L 24.605184 56.430565 
L 25.090117 54.441916 
L 25.699659 52.298356 
L 26.437133 49.995753 
L 27.305861 47.529976 
L 28.309168 44.896895 
L 29.450375 42.092377 
L 30.732807 39.112292 
L 32.159784 35.952509 
L 33.734631 32.608897 
L 35.460671 29.077326 
L 37.341225 25.353663 
L 39.379618 21.433779 
L 41.579172 17.313542 
" clip-path="url(#pcfd5f52155)" style="fill: none; stroke: #000000; stroke-opacity: 0.228571; stroke-width: 1.5; stroke-linecap: round"/>
   </g>
   <g id="line2d_5">
    <path d="M 38.0016 99.6 
L 42.984951 98.785455 
L 47.694118 97.970909 
L 52.134755 97.156364 
L 56.312515 96.341818 
L 60.233051 95.527273 
L 63.902017 94.712727 
L 67.325065 93.898182 
L 70.507849 93.083636 
L 73.456023 92.269091 
L 76.175239 91.454545 
L 78.671151 90.64 
L 80.949411 89.825455 
L 83.015675 89.010909 
L 84.875593 88.196364 
L 86.534821 87.381818 
L 87.999011 86.567273 
L 89.273816 85.752727 
L 90.36489 84.938182 
L 91.277886 84.123636 
L 92.018457 83.309091 
L 92.592257 82.494545 
L 93.004938 81.68 
L 93.262155 80.865455 
L 93.36956 80.050909 
L 93.332806 79.236364 
L 93.157547 78.421818 
L 92.849437 77.607273 
L 92.414127 76.792727 
L 91.857273 75.978182 
L 91.184526 75.163636 
L 90.401541 74.349091 
L 89.51397 73.534545 
L 88.527467 72.72 
L 87.447685 71.905455 
L 86.280277 71.090909 
L 85.030896 70.276364 
L 83.705197 69.461818 
L 82.308832 68.647273 
L 80.847454 67.832727 
L 79.326717 67.018182 
L 77.752273 66.203636 
L 76.129777 65.389091 
L 74.464881 64.574545 
L 72.76324 63.76 
L 71.030505 62.945455 
L 69.27233 62.130909 
L 67.494369 61.316364 
L 65.702275 60.501818 
L 63.9017 59.687273 
L 62.0983 58.872727 
L 60.297725 58.058182 
L 58.505631 57.243636 
L 56.72767 56.429091 
L 54.969495 55.614545 
L 53.23676 54.8 
L 51.535119 53.985455 
L 49.870223 53.170909 
L 48.247727 52.356364 
L 46.673283 51.541818 
L 45.152546 50.727273 
L 43.691168 49.912727 
L 42.294803 49.098182 
L 40.969104 48.283636 
L 39.719723 47.469091 
L 38.552315 46.654545 
L 37.472533 45.84 
L 36.48603 45.025455 
L 35.598459 44.210909 
L 34.815474 43.396364 
L 34.142727 42.581818 
L 33.585873 41.767273 
L 33.150563 40.952727 
L 32.842453 40.138182 
L 32.667194 39.323636 
L 32.63044 38.509091 
L 32.737845 37.694545 
L 32.995062 36.88 
L 33.407743 36.065455 
L 33.981543 35.250909 
L 34.722114 34.436364 
L 35.63511 33.621818 
L 36.726184 32.807273 
L 38.000989 31.992727 
L 39.465179 31.178182 
L 41.124407 30.363636 
L 42.984325 29.549091 
L 45.050589 28.734545 
L 47.328849 27.92 
L 49.824761 27.105455 
L 52.543977 26.290909 
L 55.492151 25.476364 
L 58.674935 24.661818 
L 62.097983 23.847273 
L 65.766949 23.032727 
L 69.687485 22.218182 
L 73.865245 21.403636 
L 78.305882 20.589091 
L 83.015049 19.774545 
L 87.9984 18.96 
" clip-path="url(#pcfd5f52155)" style="fill: none; stroke: #000000; stroke-width: 2; stroke-linecap: round"/>
   </g>
  </g>
 </g>
 <defs>
  <clipPath id="pcfd5f52155">
   <rect x="7.2" y="7.2" width="111.6" height="110.88"/>
  </clipPath>
 </defs>
</svg>
