<?xml version="1.0" encoding="utf-8" standalone="no"?>
<!DOCTYPE svg PUBLIC "-//W3C//DTD SVG 1.1//EN"
  "http://www.w3.org/Graphics/SVG/1.1/DTD/svg11.dtd">
<svg xmlns:xlink="http://www.w3.org/1999/xlink" width="144pt" height="144pt" viewBox="0 0 144 144" xmlns="http://www.w3.org/2000/svg" version="1.1">
 <metadata>
  <rdf:RDF xmlns:dc="http://purl.org/dc/elements/1.1/" xmlns:cc="http://creativecommons.org/ns#" xmlns:rdf="http://www.w3.org/1999/02/22-rdf-syntax-ns#">
   <cc:Work>
    <dc:type rdf:resource="http://purl.org/dc/dcmitype/StillImage"/>
    <dc:date>2024-09-05T16:17:44.422438</dc:date>
    <dc:format>image/svg+xml</dc:format>
    <dc:creator>
     <cc:Agent>
      <dc:title>Matplotlib v3.9.0, https://matplotlib.org/</dc:title>
     </cc:Agent>
    </dc:creator>
   </cc:Work>
  </rdf:RDF>
 </metadata>
 <defs>
  <style type="text/css">*{stroke-linejoin: round; stroke-linecap: butt}</style>
 </defs>
 <g id="figure_1">
  <g id="patch_1">
   <path d="M 0 144 
L 144 144 
L 144 0 
L 0 0 
z
" style="fill: #ffffff"/>
  </g>
  <g id="axes_1">
   <g id="PathCollection_1">
    <defs>
     <path id="m2f8a242529" d="M 0 2.738613 
C 0.726289 2.738613 1.422928 2.450055 1.936492 1.936492 
C 2.450055 1.422928 2.738613 0.726289 2.738613 0 
C 2.738613 -0.726289 2.450055 -1.422928 1.936492 -1.936492 
C 1.422928 -2.450055 0.726289 -2.738613 0 -2.738613 
C -0.726289 -2.738613 -1.422928 -2.450055 -1.936492 -1.936492 
C -2.450055 -1.422928 -2.738613 -0.726289 -2.738613 0 
C -2.738613 0.726289 -2.450055 1.422928 -1.936492 1.936492 
C -1.422928 2.450055 -0.726289 2.738613 0 2.738613 
z
" style="stroke: #999c81; stroke-opacity: 0.9"/>
    </defs>
    <g clip-path="url(#p372f56c8c9)">
     <use xlink:href="#m2f8a242529" x="100.321364" y="74.893826" style="fill: #999c81; fill-opacity: 0.9; stroke: #999c81; stroke-opacity: 0.9"/>
     <use xlink:href="#m2f8a242529" x="60.478059" y="42.349652" style="fill: #999c81; fill-opacity: 0.9; stroke: #999c81; stroke-opacity: 0.9"/>
     <use xlink:href="#m2f8a242529" x="101.904319" y="102.41476" style="fill: #999c81; fill-opacity: 0.9; stroke: #999c81; stroke-opacity: 0.9"/>
     <use xlink:href="#m2f8a242529" x="71.215988" y="37.243148" style="fill: #999c81; fill-opacity: 0.9; stroke: #999c81; stroke-opacity: 0.9"/>
     <use xlink:href="#m2f8a242529" x="77.458828" y="36.776272" style="fill: #999c81; fill-opacity: 0.9; stroke: #999c81; stroke-opacity: 0.9"/>
     <use xlink:href="#m2f8a242529" x="63.266387" y="54.38338" style="fill: #999c81; fill-opacity: 0.9; stroke: #999c81; stroke-opacity: 0.9"/>
     <use xlink:href="#m2f8a242529" x="110.86554" y="100.606686" style="fill: #999c81; fill-opacity: 0.9; stroke: #999c81; stroke-opacity: 0.9"/>
     <use xlink:href="#m2f8a242529" x="73.104146" y="64.341687" style="fill: #999c81; fill-opacity: 0.9; stroke: #999c81; stroke-opacity: 0.9"/>
     <use xlink:href="#m2f8a242529" x="106.629879" y="30.570685" style="fill: #999c81; fill-opacity: 0.9; stroke: #999c81; stroke-opacity: 0.9"/>
     <use xlink:href="#m2f8a242529" x="92.030771" y="32.969156" style="fill: #999c81; fill-opacity: 0.9; stroke: #999c81; stroke-opacity: 0.9"/>
     <use xlink:href="#m2f8a242529" x="60.79773" y="42.885577" style="fill: #999c81; fill-opacity: 0.9; stroke: #999c81; stroke-opacity: 0.9"/>
     <use xlink:href="#m2f8a242529" x="76.715981" y="110.208097" style="fill: #999c81; fill-opacity: 0.9; stroke: #999c81; stroke-opacity: 0.9"/>
     <use xlink:href="#m2f8a242529" x="95.924413" y="31.335212" style="fill: #999c81; fill-opacity: 0.9; stroke: #999c81; stroke-opacity: 0.9"/>
     <use xlink:href="#m2f8a242529" x="87.044993" y="108.558738" style="fill: #999c81; fill-opacity: 0.9; stroke: #999c81; stroke-opacity: 0.9"/>
     <use xlink:href="#m2f8a242529" x="90.81963" y="106.473859" style="fill: #999c81; fill-opacity: 0.9; stroke: #999c81; stroke-opacity: 0.9"/>
     <use xlink:href="#m2f8a242529" x="113.860431" y="84.959772" style="fill: #999c81; fill-opacity: 0.9; stroke: #999c81; stroke-opacity: 0.9"/>
     <use xlink:href="#m2f8a242529" x="67.196445" y="39.758183" style="fill: #999c81; fill-opacity: 0.9; stroke: #999c81; stroke-opacity: 0.9"/>
    </g>
   </g>
   <g id="PathCollection_2">
    <defs>
     <path id="mcff5ab0528" d="M -2.738613 2.738613 
L 2.738613 2.738613 
L 2.738613 -2.738613 
L -2.738613 -2.738613 
z
" style="stroke: #999c81; stroke-opacity: 0.9"/>
    </defs>
    <g clip-path="url(#p372f56c8c9)">
     <use xlink:href="#mcff5ab0528" x="40.272929" y="61.289673" style="fill: #999c81; fill-opacity: 0.9; stroke: #999c81; stroke-opacity: 0.9"/>
     <use xlink:href="#mcff5ab0528" x="43.158744" y="61.665884" style="fill: #999c81; fill-opacity: 0.9; stroke: #999c81; stroke-opacity: 0.9"/>
     <use xlink:href="#mcff5ab0528" x="73.351453" y="104.064029" style="fill: #999c81; fill-opacity: 0.9; stroke: #999c81; stroke-opacity: 0.9"/>
     <use xlink:href="#mcff5ab0528" x="88.914572" y="92.122696" style="fill: #999c81; fill-opacity: 0.9; stroke: #999c81; stroke-opacity: 0.9"/>
     <use xlink:href="#mcff5ab0528" x="34.186153" y="47.368124" style="fill: #999c81; fill-opacity: 0.9; stroke: #999c81; stroke-opacity: 0.9"/>
     <use xlink:href="#mcff5ab0528" x="37.333903" y="112.501548" style="fill: #999c81; fill-opacity: 0.9; stroke: #999c81; stroke-opacity: 0.9"/>
     <use xlink:href="#mcff5ab0528" x="53.214121" y="110.225822" style="fill: #999c81; fill-opacity: 0.9; stroke: #999c81; stroke-opacity: 0.9"/>
     <use xlink:href="#mcff5ab0528" x="86.104442" y="82.603708" style="fill: #999c81; fill-opacity: 0.9; stroke: #999c81; stroke-opacity: 0.9"/>
     <use xlink:href="#mcff5ab0528" x="28.842668" y="55.551246" style="fill: #999c81; fill-opacity: 0.9; stroke: #999c81; stroke-opacity: 0.9"/>
     <use xlink:href="#mcff5ab0528" x="88.678516" y="92.195907" style="fill: #999c81; fill-opacity: 0.9; stroke: #999c81; stroke-opacity: 0.9"/>
     <use xlink:href="#mcff5ab0528" x="49.792263" y="68.468207" style="fill: #999c81; fill-opacity: 0.9; stroke: #999c81; stroke-opacity: 0.9"/>
     <use xlink:href="#mcff5ab0528" x="35.125017" y="58.654234" style="fill: #999c81; fill-opacity: 0.9; stroke: #999c81; stroke-opacity: 0.9"/>
     <use xlink:href="#mcff5ab0528" x="79.082517" y="99.919939" style="fill: #999c81; fill-opacity: 0.9; stroke: #999c81; stroke-opacity: 0.9"/>
     <use xlink:href="#mcff5ab0528" x="75.504658" y="102.488134" style="fill: #999c81; fill-opacity: 0.9; stroke: #999c81; stroke-opacity: 0.9"/>
     <use xlink:href="#mcff5ab0528" x="75.868623" y="103.625446" style="fill: #999c81; fill-opacity: 0.9; stroke: #999c81; stroke-opacity: 0.9"/>
     <use xlink:href="#mcff5ab0528" x="35.237314" y="60.325787" style="fill: #999c81; fill-opacity: 0.9; stroke: #999c81; stroke-opacity: 0.9"/>
     <use xlink:href="#mcff5ab0528" x="57.334952" y="69.634051" style="fill: #999c81; fill-opacity: 0.9; stroke: #999c81; stroke-opacity: 0.9"/>
     <use xlink:href="#mcff5ab0528" x="38.094756" y="113.464391" style="fill: #999c81; fill-opacity: 0.9; stroke: #999c81; stroke-opacity: 0.9"/>
     <use xlink:href="#mcff5ab0528" x="63.207545" y="32.505444" style="fill: #999c81; fill-opacity: 0.9; stroke: #999c81; stroke-opacity: 0.9"/>
     <use xlink:href="#mcff5ab0528" x="56.964734" y="108.504604" style="fill: #999c81; fill-opacity: 0.9; stroke: #999c81; stroke-opacity: 0.9"/>
    </g>
   </g>
   <g id="PathCollection_3">
    <defs>
     <path id="mbe0151ff9d" d="M 0 2.738613 
C 0.726289 2.738613 1.422928 2.450055 1.936492 1.936492 
C 2.450055 1.422928 2.738613 0.726289 2.738613 0 
C 2.738613 -0.726289 2.450055 -1.422928 1.936492 -1.936492 
C 1.422928 -2.450055 0.726289 -2.738613 0 -2.738613 
C -0.726289 -2.738613 -1.422928 -2.450055 -1.936492 -1.936492 
C -2.450055 -1.422928 -2.738613 -0.726289 -2.738613 0 
C -2.738613 0.726289 -2.450055 1.422928 -1.936492 1.936492 
C -1.422928 2.450055 -0.726289 2.738613 0 2.738613 
z
" style="stroke: #2364aa; stroke-opacity: 0.9"/>
    </defs>
    <g clip-path="url(#p372f56c8c9)">
     <use xlink:href="#mbe0151ff9d" x="92.694099" y="53.164894" style="fill: #2364aa; fill-opacity: 0.9; stroke: #2364aa; stroke-opacity: 0.9"/>
     <use xlink:href="#mbe0151ff9d" x="41.235816" y="64.303771" style="fill: #2364aa; fill-opacity: 0.9; stroke: #2364aa; stroke-opacity: 0.9"/>
     <use xlink:href="#mbe0151ff9d" x="117.335656" y="68.138766" style="fill: #2364aa; fill-opacity: 0.9; stroke: #2364aa; stroke-opacity: 0.9"/>
     <use xlink:href="#mbe0151ff9d" x="43.147819" y="53.144935" style="fill: #2364aa; fill-opacity: 0.9; stroke: #2364aa; stroke-opacity: 0.9"/>
     <use xlink:href="#mbe0151ff9d" x="46.415024" y="48.127998" style="fill: #2364aa; fill-opacity: 0.9; stroke: #2364aa; stroke-opacity: 0.9"/>
     <use xlink:href="#mbe0151ff9d" x="53.242613" y="69.258803" style="fill: #2364aa; fill-opacity: 0.9; stroke: #2364aa; stroke-opacity: 0.9"/>
     <use xlink:href="#mbe0151ff9d" x="121.045153" y="60.268414" style="fill: #2364aa; fill-opacity: 0.9; stroke: #2364aa; stroke-opacity: 0.9"/>
     <use xlink:href="#mbe0151ff9d" x="67.604848" y="67.638675" style="fill: #2364aa; fill-opacity: 0.9; stroke: #2364aa; stroke-opacity: 0.9"/>
     <use xlink:href="#mbe0151ff9d" x="58.21481" y="22.32" style="fill: #2364aa; fill-opacity: 0.9; stroke: #2364aa; stroke-opacity: 0.9"/>
     <use xlink:href="#mbe0151ff9d" x="51.700112" y="34.820327" style="fill: #2364aa; fill-opacity: 0.9; stroke: #2364aa; stroke-opacity: 0.9"/>
     <use xlink:href="#mbe0151ff9d" x="41.885449" y="64.375935" style="fill: #2364aa; fill-opacity: 0.9; stroke: #2364aa; stroke-opacity: 0.9"/>
     <use xlink:href="#mbe0151ff9d" x="109.244801" y="91.854462" style="fill: #2364aa; fill-opacity: 0.9; stroke: #2364aa; stroke-opacity: 0.9"/>
     <use xlink:href="#mbe0151ff9d" x="52.580986" y="30.902026" style="fill: #2364aa; fill-opacity: 0.9; stroke: #2364aa; stroke-opacity: 0.9"/>
     <use xlink:href="#mbe0151ff9d" x="113.895009" y="83.038327" style="fill: #2364aa; fill-opacity: 0.9; stroke: #2364aa; stroke-opacity: 0.9"/>
     <use xlink:href="#mbe0151ff9d" x="114.317423" y="78.945378" style="fill: #2364aa; fill-opacity: 0.9; stroke: #2364aa; stroke-opacity: 0.9"/>
     <use xlink:href="#mbe0151ff9d" x="109.324646" y="48.796252" style="fill: #2364aa; fill-opacity: 0.9; stroke: #2364aa; stroke-opacity: 0.9"/>
     <use xlink:href="#mbe0151ff9d" x="42.952061" y="57.676772" style="fill: #2364aa; fill-opacity: 0.9; stroke: #2364aa; stroke-opacity: 0.9"/>
    </g>
   </g>
   <g id="PathCollection_4">
    <defs>
     <path id="m9c8d146731" d="M -2.738613 2.738613 
L 2.738613 2.738613 
L 2.738613 -2.738613 
L -2.738613 -2.738613 
z
" style="stroke: #c84630; stroke-opacity: 0.9"/>
    </defs>
    <g clip-path="url(#p372f56c8c9)">
     <use xlink:href="#m9c8d146731" x="45.677629" y="90.785718" style="fill: #c84630; fill-opacity: 0.9; stroke: #c84630; stroke-opacity: 0.9"/>
     <use xlink:href="#m9c8d146731" x="47.697999" y="88.814575" style="fill: #c84630; fill-opacity: 0.9; stroke: #c84630; stroke-opacity: 0.9"/>
     <use xlink:href="#m9c8d146731" x="101.973657" y="90.799009" style="fill: #c84630; fill-opacity: 0.9; stroke: #c84630; stroke-opacity: 0.9"/>
     <use xlink:href="#m9c8d146731" x="100.833175" y="71.957196" style="fill: #c84630; fill-opacity: 0.9; stroke: #c84630; stroke-opacity: 0.9"/>
     <use xlink:href="#m9c8d146731" x="30.105569" y="87.226793" style="fill: #c84630; fill-opacity: 0.9; stroke: #c84630; stroke-opacity: 0.9"/>
     <use xlink:href="#m9c8d146731" x="88.072557" y="123.12" style="fill: #c84630; fill-opacity: 0.9; stroke: #c84630; stroke-opacity: 0.9"/>
     <use xlink:href="#m9c8d146731" x="95.446026" y="109.718597" style="fill: #c84630; fill-opacity: 0.9; stroke: #c84630; stroke-opacity: 0.9"/>
     <use xlink:href="#m9c8d146731" x="90.980179" y="68.496854" style="fill: #c84630; fill-opacity: 0.9; stroke: #c84630; stroke-opacity: 0.9"/>
     <use xlink:href="#m9c8d146731" x="34.015053" y="96.09601" style="fill: #c84630; fill-opacity: 0.9; stroke: #c84630; stroke-opacity: 0.9"/>
     <use xlink:href="#m9c8d146731" x="100.757501" y="72.179553" style="fill: #c84630; fill-opacity: 0.9; stroke: #c84630; stroke-opacity: 0.9"/>
     <use xlink:href="#m9c8d146731" x="57.457739" y="87.773578" style="fill: #c84630; fill-opacity: 0.9; stroke: #c84630; stroke-opacity: 0.9"/>
     <use xlink:href="#m9c8d146731" x="40.381156" y="93.147373" style="fill: #c84630; fill-opacity: 0.9; stroke: #c84630; stroke-opacity: 0.9"/>
     <use xlink:href="#m9c8d146731" x="101.771882" y="84.009442" style="fill: #c84630; fill-opacity: 0.9; stroke: #c84630; stroke-opacity: 0.9"/>
     <use xlink:href="#m9c8d146731" x="101.88154" y="88.236991" style="fill: #c84630; fill-opacity: 0.9; stroke: #c84630; stroke-opacity: 0.9"/>
     <use xlink:href="#m9c8d146731" x="103.075344" y="88.628991" style="fill: #c84630; fill-opacity: 0.9; stroke: #c84630; stroke-opacity: 0.9"/>
     <use xlink:href="#m9c8d146731" x="41.887317" y="94.044578" style="fill: #c84630; fill-opacity: 0.9; stroke: #c84630; stroke-opacity: 0.9"/>
     <use xlink:href="#m9c8d146731" x="62.895673" y="82.728871" style="fill: #c84630; fill-opacity: 0.9; stroke: #c84630; stroke-opacity: 0.9"/>
     <use xlink:href="#m9c8d146731" x="89.349328" y="123.107946" style="fill: #c84630; fill-opacity: 0.9; stroke: #c84630; stroke-opacity: 0.9"/>
     <use xlink:href="#m9c8d146731" x="34.358726" y="56.443975" style="fill: #c84630; fill-opacity: 0.9; stroke: #c84630; stroke-opacity: 0.9"/>
     <use xlink:href="#m9c8d146731" x="96.167636" y="105.857653" style="fill: #c84630; fill-opacity: 0.9; stroke: #c84630; stroke-opacity: 0.9"/>
    </g>
   </g>
   <g id="line2d_1">
    <path d="M 48.8016 112.974787 
L 53.784951 112.127974 
L 58.494118 111.28116 
L 62.934755 110.434347 
L 67.112515 109.587533 
L 71.033051 108.74072 
L 74.702017 107.893907 
L 78.125065 107.047093 
L 81.307849 106.20028 
L 84.256023 105.353466 
L 86.975239 104.506653 
L 89.471151 103.659839 
L 91.749411 102.813026 
L 93.815675 101.966212 
L 95.675593 101.119399 
L 97.334821 100.272586 
L 98.799011 99.425772 
L 100.073816 98.578959 
L 101.16489 97.732145 
L 102.077886 96.885332 
L 102.818457 96.038518 
L 103.392257 95.191705 
L 103.804938 94.344891 
L 104.062155 93.498078 
L 104.16956 92.651265 
L 104.132806 91.804451 
L 103.957547 90.957638 
L 103.649437 90.110824 
L 103.214127 89.264011 
L 102.657273 88.417197 
L 101.984526 87.570384 
L 101.201541 86.72357 
L 100.31397 85.876757 
L 99.327467 85.029944 
L 98.247685 84.18313 
L 97.080277 83.336317 
L 95.830896 82.489503 
L 94.505197 81.64269 
L 93.108832 80.795876 
L 91.647454 79.949063 
L 90.126717 79.102249 
L 88.552273 78.255436 
L 86.929777 77.408623 
L 85.264881 76.561809 
L 83.56324 75.714996 
L 81.830505 74.868182 
L 80.07233 74.021369 
L 78.294369 73.174555 
L 76.502275 72.327742 
L 74.7017 71.480929 
L 72.8983 70.634115 
L 71.097725 69.787302 
L 69.305631 68.940488 
L 67.52767 68.093675 
L 65.769495 67.246861 
L 64.03676 66.400048 
L 62.335119 65.553234 
L 60.670223 64.706421 
L 59.047727 63.859608 
L 57.473283 63.012794 
L 55.952546 62.165981 
L 54.491168 61.319167 
L 53.094803 60.472354 
L 51.769104 59.62554 
L 50.519723 58.778727 
L 49.352315 57.931913 
L 48.272533 57.0851 
L 47.28603 56.238287 
L 46.398459 55.391473 
L 45.615474 54.54466 
L 44.942727 53.697846 
L 44.385873 52.851033 
L 43.950563 52.004219 
L 43.642453 51.157406 
L 43.467194 50.310592 
L 43.43044 49.463779 
L 43.537845 48.616966 
L 43.795062 47.770152 
L 44.207743 46.923339 
L 44.781543 46.076525 
L 45.522114 45.229712 
L 46.43511 44.382898 
L 47.526184 43.536085 
L 48.800989 42.689271 
L 50.265179 41.842458 
L 51.924407 40.995645 
L 53.784325 40.148831 
L 55.850589 39.302018 
L 58.128849 38.455204 
L 60.624761 37.608391 
L 63.343977 36.761577 
L 66.292151 35.914764 
L 69.474935 35.067951 
L 72.897983 34.221137 
L 76.566949 33.374324 
L 80.487485 32.52751 
L 84.665245 31.680697 
L 89.105882 30.833883 
L 93.815049 29.98707 
L 98.7984 29.140256 
" clip-path="url(#p372f56c8c9)" style="fill: none; stroke: #000000; stroke-width: 9; stroke-linecap: round"/>
   </g>
   <g id="line2d_2">
    <path d="M 63.819627 118.176973 
L 68.280399 115.925591 
L 72.480406 113.753769 
L 76.425026 111.659866 
L 80.119634 109.642242 
L 83.569608 107.699256 
L 86.780325 105.829268 
L 89.75716 104.030638 
L 92.505491 102.301725 
L 95.030693 100.640889 
L 97.338144 99.046489 
L 99.43322 97.516885 
L 101.321298 96.050437 
L 103.007754 94.645504 
L 104.497964 93.300445 
L 105.797306 92.013621 
L 106.911157 90.783391 
L 107.844891 89.608115 
L 108.603887 88.486151 
L 109.193521 87.415861 
L 109.619169 86.395603 
L 109.886207 85.423736 
L 110.000014 84.498621 
L 109.965964 83.618618 
L 109.789435 82.782085 
L 109.475803 81.987382 
L 109.030445 81.232869 
L 108.458737 80.516906 
L 107.766056 79.837852 
L 106.957779 79.194066 
L 106.039282 78.583909 
L 105.015941 78.00574 
L 103.893134 77.457918 
L 102.676236 76.938803 
L 101.370625 76.446755 
L 99.981677 75.980133 
L 98.514769 75.537297 
L 96.975277 75.116607 
L 95.368577 74.716422 
L 93.700047 74.335101 
L 91.975063 73.971004 
L 90.199001 73.622492 
L 88.377239 73.287922 
L 86.515152 72.965656 
L 84.618117 72.654053 
L 82.691511 72.351471 
L 80.74071 72.056272 
L 78.771092 71.766814 
L 76.788032 71.481456 
L 74.796907 71.19856 
L 72.803093 70.916484 
L 70.811968 70.633587 
L 68.828908 70.34823 
L 66.85929 70.058772 
L 64.908489 69.763572 
L 62.981883 69.460991 
L 61.084848 69.149387 
L 59.222761 68.827121 
L 57.400999 68.492552 
L 55.624937 68.144039 
L 53.899953 67.779943 
L 52.231423 67.398622 
L 50.624723 66.998437 
L 49.085231 66.577746 
L 47.618323 66.13491 
L 46.229375 65.668288 
L 44.923764 65.17624 
L 43.706866 64.657126 
L 42.584059 64.109304 
L 41.560718 63.531134 
L 40.642221 62.920977 
L 39.833944 62.277192 
L 39.141263 61.598138 
L 38.569555 60.882174 
L 38.124197 60.127662 
L 37.810565 59.332959 
L 37.634036 58.496426 
L 37.599986 57.616422 
L 37.713793 56.691307 
L 37.980831 55.719441 
L 38.406479 54.699183 
L 38.996113 53.628892 
L 39.755109 52.506929 
L 40.688843 51.331652 
L 41.802694 50.101422 
L 43.102036 48.814598 
L 44.592246 47.46954 
L 46.278702 46.064607 
L 48.16678 44.598159 
L 50.261856 43.068555 
L 52.569307 41.474155 
L 55.094509 39.813319 
L 57.84284 38.084406 
L 60.819675 36.285775 
L 64.030392 34.415788 
L 67.480366 32.472802 
L 71.174974 30.455178 
L 75.119594 28.361275 
L 79.319601 26.189453 
L 83.780373 23.938071 
" clip-path="url(#p372f56c8c9)" style="fill: none; stroke: #000000; stroke-opacity: 0.742857; stroke-width: 6.5; stroke-linecap: round"/>
   </g>
   <g id="line2d_3">
    <path d="M 79.814603 118.766778 
L 83.316143 115.331209 
L 86.595864 112.046971 
L 89.65834 108.910944 
L 92.508143 105.920009 
L 95.149848 103.071044 
L 97.588028 100.360929 
L 99.827257 97.786544 
L 101.872108 95.34477 
L 103.727155 93.032485 
L 105.396972 90.84657 
L 106.886131 88.783904 
L 108.199207 86.841367 
L 109.340774 85.015839 
L 110.315405 83.304199 
L 111.127673 81.703328 
L 111.782152 80.210105 
L 112.283415 78.82141 
L 112.636037 77.534122 
L 112.844591 76.345122 
L 112.91365 75.251289 
L 112.847788 74.249502 
L 112.651579 73.336643 
L 112.329596 72.50959 
L 111.886413 71.765223 
L 111.326603 71.100422 
L 110.654741 70.512067 
L 109.875399 69.997037 
L 108.993151 69.552213 
L 108.01257 69.174474 
L 106.938231 68.860699 
L 105.774708 68.607769 
L 104.526572 68.412564 
L 103.198399 68.271962 
L 101.794761 68.182845 
L 100.320233 68.142091 
L 98.779388 68.14658 
L 97.176799 68.193193 
L 95.51704 68.278808 
L 93.804685 68.400306 
L 92.044308 68.554567 
L 90.240481 68.73847 
L 88.397779 68.948895 
L 86.520774 69.182722 
L 84.614042 69.43683 
L 82.682154 69.708099 
L 80.729686 69.99341 
L 78.761209 70.289641 
L 76.781299 70.593673 
L 74.794529 70.902386 
L 72.805471 71.212658 
L 70.818701 71.52137 
L 68.838791 71.825402 
L 66.870314 72.121634 
L 64.917846 72.406944 
L 62.985958 72.678214 
L 61.079226 72.932322 
L 59.202221 73.166149 
L 57.359519 73.376574 
L 55.555692 73.560476 
L 53.795315 73.714737 
L 52.08296 73.836235 
L 50.423201 73.921851 
L 48.820612 73.968464 
L 47.279767 73.972953 
L 45.805239 73.932199 
L 44.401601 73.843081 
L 43.073428 73.70248 
L 41.825292 73.507274 
L 40.661769 73.254344 
L 39.58743 72.94057 
L 38.606849 72.562831 
L 37.724601 72.118006 
L 36.945259 71.602977 
L 36.273397 71.014622 
L 35.713587 70.349821 
L 35.270404 69.605454 
L 34.948421 68.778401 
L 34.752212 67.865541 
L 34.68635 66.863755 
L 34.755409 65.769922 
L 34.963963 64.580922 
L 35.316585 63.293634 
L 35.817848 61.904939 
L 36.472327 60.411715 
L 37.284595 58.810844 
L 38.259226 57.099205 
L 39.400793 55.273676 
L 40.713869 53.33114 
L 42.203028 51.268474 
L 43.872845 49.082558 
L 45.727892 46.770274 
L 47.772743 44.328499 
L 50.011972 41.754115 
L 52.450152 39.044 
L 55.091857 36.195035 
L 57.94166 33.204099 
L 61.004136 30.068073 
L 64.283857 26.783835 
L 67.785397 23.348266 
" clip-path="url(#p372f56c8c9)" style="fill: none; stroke: #000000; stroke-opacity: 0.485714; stroke-width: 4; stroke-linecap: round"/>
   </g>
   <g id="line2d_4">
    <path d="M 95.220828 114.686469 
L 97.420382 110.40301 
L 99.458775 106.327841 
L 101.339329 102.456666 
L 103.065369 98.785193 
L 104.640216 95.309125 
L 106.067193 92.024168 
L 107.349625 88.926028 
L 108.490832 86.01041 
L 109.494139 83.273019 
L 110.362867 80.709561 
L 111.100341 78.315741 
L 111.709883 76.087265 
L 112.194816 74.019837 
L 112.558463 72.109163 
L 112.804146 70.350949 
L 112.935189 68.7409 
L 112.954914 67.274721 
L 112.866645 65.948118 
L 112.673705 64.756795 
L 112.379415 63.696459 
L 111.9871 62.762815 
L 111.500082 61.951568 
L 110.921683 61.258423 
L 110.255228 60.679086 
L 109.504039 60.209263 
L 108.671438 59.844657 
L 107.760749 59.580976 
L 106.775294 59.413924 
L 105.718397 59.339207 
L 104.59338 59.352529 
L 103.403567 59.449597 
L 102.15228 59.626116 
L 100.842841 59.877791 
L 99.478575 60.200327 
L 98.062804 60.589431 
L 96.59885 61.040806 
L 95.090037 61.550159 
L 93.539688 62.113195 
L 91.951126 62.725619 
L 90.327672 63.383137 
L 88.672652 64.081453 
L 86.989386 64.816275 
L 85.281199 65.583306 
L 83.551412 66.378252 
L 81.80335 67.196818 
L 80.040335 68.034711 
L 78.265689 68.887635 
L 76.482736 69.751295 
L 74.694799 70.621397 
L 72.905201 71.493647 
L 71.117264 72.363749 
L 69.334311 73.227409 
L 67.559665 74.080333 
L 65.79665 74.918225 
L 64.048588 75.736792 
L 62.318801 76.531738 
L 60.610614 77.298769 
L 58.927348 78.03359 
L 57.272328 78.731907 
L 55.648874 79.389425 
L 54.060312 80.001849 
L 52.509963 80.564885 
L 51.00115 81.074238 
L 49.537196 81.525613 
L 48.121425 81.914716 
L 46.757159 82.237253 
L 45.44772 82.488927 
L 44.196433 82.665446 
L 43.00662 82.762514 
L 41.881603 82.775837 
L 40.824706 82.701119 
L 39.839251 82.534067 
L 38.928562 82.270386 
L 38.095961 81.905781 
L 37.344772 81.435957 
L 36.678317 80.85662 
L 36.099918 80.163476 
L 35.6129 79.352228 
L 35.220585 78.418584 
L 34.926295 77.358248 
L 34.733355 76.166926 
L 34.645086 74.840323 
L 34.664811 73.374144 
L 34.795854 71.764094 
L 35.041537 70.00588 
L 35.405184 68.095207 
L 35.890117 66.027779 
L 36.499659 63.799302 
L 37.237133 61.405482 
L 38.105861 58.842024 
L 39.109168 56.104634 
L 40.250375 53.189016 
L 41.532807 50.090876 
L 42.959784 46.805919 
L 44.534631 43.329851 
L 46.260671 39.658377 
L 48.141225 35.787203 
L 50.179618 31.712034 
L 52.379172 27.428575 
" clip-path="url(#p372f56c8c9)" style="fill: none; stroke: #000000; stroke-opacity: 0.228571; stroke-width: 1.5; stroke-linecap: round"/>
   </g>
   <g id="line2d_5">
    <path d="M 48.8016 112.974787 
L 53.784951 112.127974 
L 58.494118 111.28116 
L 62.934755 110.434347 
L 67.112515 109.587533 
L 71.033051 108.74072 
L 74.702017 107.893907 
L 78.125065 107.047093 
L 81.307849 106.20028 
L 84.256023 105.353466 
L 86.975239 104.506653 
L 89.471151 103.659839 
L 91.749411 102.813026 
L 93.815675 101.966212 
L 95.675593 101.119399 
L 97.334821 100.272586 
L 98.799011 99.425772 
L 100.073816 98.578959 
L 101.16489 97.732145 
L 102.077886 96.885332 
L 102.818457 96.038518 
L 103.392257 95.191705 
L 103.804938 94.344891 
L 104.062155 93.498078 
L 104.16956 92.651265 
L 104.132806 91.804451 
L 103.957547 90.957638 
L 103.649437 90.110824 
L 103.214127 89.264011 
L 102.657273 88.417197 
L 101.984526 87.570384 
L 101.201541 86.72357 
L 100.31397 85.876757 
L 99.327467 85.029944 
L 98.247685 84.18313 
L 97.080277 83.336317 
L 95.830896 82.489503 
L 94.505197 81.64269 
L 93.108832 80.795876 
L 91.647454 79.949063 
L 90.126717 79.102249 
L 88.552273 78.255436 
L 86.929777 77.408623 
L 85.264881 76.561809 
L 83.56324 75.714996 
L 81.830505 74.868182 
L 80.07233 74.021369 
L 78.294369 73.174555 
L 76.502275 72.327742 
L 74.7017 71.480929 
L 72.8983 70.634115 
L 71.097725 69.787302 
L 69.305631 68.940488 
L 67.52767 68.093675 
L 65.769495 67.246861 
L 64.03676 66.400048 
L 62.335119 65.553234 
L 60.670223 64.706421 
L 59.047727 63.859608 
L 57.473283 63.012794 
L 55.952546 62.165981 
L 54.491168 61.319167 
L 53.094803 60.472354 
L 51.769104 59.62554 
L 50.519723 58.778727 
L 49.352315 57.931913 
L 48.272533 57.0851 
L 47.28603 56.238287 
L 46.398459 55.391473 
L 45.615474 54.54466 
L 44.942727 53.697846 
L 44.385873 52.851033 
L 43.950563 52.004219 
L 43.642453 51.157406 
L 43.467194 50.310592 
L 43.43044 49.463779 
L 43.537845 48.616966 
L 43.795062 47.770152 
L 44.207743 46.923339 
L 44.781543 46.076525 
L 45.522114 45.229712 
L 46.43511 44.382898 
L 47.526184 43.536085 
L 48.800989 42.689271 
L 50.265179 41.842458 
L 51.924407 40.995645 
L 53.784325 40.148831 
L 55.850589 39.302018 
L 58.128849 38.455204 
L 60.624761 37.608391 
L 63.343977 36.761577 
L 66.292151 35.914764 
L 69.474935 35.067951 
L 72.897983 34.221137 
L 76.566949 33.374324 
L 80.487485 32.52751 
L 84.665245 31.680697 
L 89.105882 30.833883 
L 93.815049 29.98707 
L 98.7984 29.140256 
" clip-path="url(#p372f56c8c9)" style="fill: none; stroke: #000000; stroke-width: 2; stroke-linecap: round"/>
   </g>
  </g>
 </g>
 <defs>
  <clipPath id="p372f56c8c9">
   <rect x="18" y="17.28" width="111.6" height="110.88"/>
  </clipPath>
 </defs>
</svg>
